<?xml version="1.0" encoding="utf-8"?>
<svg xmlns="http://www.w3.org/2000/svg" width="350px" height="350px" viewBox="0 0 128 128" preserveAspectRatio="xMidYMin" xmlns:bx="https://boxy-svg.com">
  <defs>
    <bx:export>
      <bx:file format="svg"/>
    </bx:export>
  </defs>
  <path fill="white" d="M 0 512 L 512 512 L 0 512 Z"/>
  <path d="M 49.023 11.333 C 53.496 11.086 75.723 10.72 78.687 11.777 C 80.02 12.253 80.952 13.396 81.726 14.528 C 83.499 17.123 85.774 21.97 88.565 23.37 C 92.311 25.249 96.928 23.469 100.875 24.86 C 102.171 25.317 102.985 26.306 103.798 27.368 C 106.099 30.368 107.819 34.019 109.706 37.308 C 111.621 40.649 113.768 43.97 115.466 47.417 C 118.603 53.785 113.361 58.028 111.364 64.073 L 111.246 64.434 C 112.776 68.382 116.837 73.847 116.474 77.81 C 116.204 80.766 112.396 86.942 110.722 89.705 C 107.865 94.42 105.153 100.818 100.869 104.216 C 97.696 104.297 94.678 104.026 91.491 104.549 C 82.405 106.039 86.351 112.689 78.37 116.914 C 77.018 117.187 75.637 117.272 74.26 117.27 C 66.147 117.255 58.025 117.36 49.913 117.219 C 46.496 113.917 44.946 110.52 42.135 106.817 C 37.702 100.98 29.53 107.658 24.846 101.148 C 19.946 94.338 16.182 86.7 12.087 79.382 C 9.743 74.022 17.756 68.631 16.522 63.131 C 14.92 55.99 8.441 53.325 13.704 45.756 C 17.137 40.82 22.295 28.144 26.59 24.658 C 29.325 24.067 37.02 23.423 40.186 23.075 C 43.447 19.737 46.895 12.825 49.023 11.333 Z"/>
  <path fill="white" d="M 53.928 16.296 C 54.321 16.28 54.817 16.248 55.241 16.262 C 62.236 16.486 69.94 15.727 76.82 16.606 C 77.386 16.679 78.364 17.444 78.708 17.846 C 84.844 25.024 84.686 27.322 79.313 34.988 C 77.601 37.532 76.104 40.103 74.489 42.719 C 73.676 44.035 71.85 46.734 73.649 48.041 C 74.964 48.955 76.069 48.451 76.875 47.262 C 77.905 45.741 78.52 44.051 79.49 42.501 C 82.386 37.869 84.596 32.669 87.799 28.241 C 90.379 28.281 98.008 28.457 99.783 30.197 C 101.545 31.923 112.249 50.289 112.233 52.084 C 112.208 54.684 109.426 59.866 107.55 61.667 C 107.131 62.069 106.687 62.32 106.116 62.443 C 102.961 63.122 92.26 62.432 88.28 62.373 C 86.818 62.352 84.274 62.233 83.283 63.551 C 82.855 64.12 82.956 64.535 83.012 65.188 C 85.337 68.216 103.611 64.275 107.017 67.364 C 116.642 76.915 108.968 82.896 104.265 91.606 C 100.146 99.233 98.551 102.294 88.352 100.14 C 83.801 99.179 78.315 80.068 73.986 80.71 C 71.087 82.92 74.456 85.987 75.829 88.521 C 78.342 93.16 81.818 97.752 84.011 102.546 L 84.159 102.875 C 83.021 105.111 81.137 108.424 79.62 110.38 C 78.115 112.318 76.988 112.752 74.702 113.017 C 72.562 113.044 51.824 112.203 51.123 111.942 C 49.604 111.374 45.353 104.604 44.689 103.035 C 44.481 102.542 44.465 102.039 44.615 101.526 C 45.101 99.868 46.25 98.249 47.138 96.778 C 49.342 93.128 54.211 86.13 55.474 82.389 C 55.695 81.735 55.556 81.244 55.25 80.643 C 54.611 80.184 53.934 79.75 53.097 79.972 C 51.28 80.453 43.605 96.293 41.537 99.169 C 41.472 99.259 41.405 99.347 41.34 99.436 C 37.872 100.718 33.551 100.778 30.239 99.021 C 25.239 96.369 23.668 90.245 21.041 85.64 C 19.397 82.757 17.198 80.136 16.172 76.962 C 16.193 76.875 16.214 76.788 16.235 76.701 L 16.352 76.269 C 17.116 73.389 19.371 69.111 20.761 66.341 C 27.83 64.945 37.341 67.546 44.448 65.74 C 45.512 65.47 45.763 63.487 45.225 62.562 C 43.247 61.254 26.062 62.563 21.725 61.852 C 17.577 57.914 15.879 51.454 18.666 46.262 C 20.208 43.43 22.23 40.83 23.921 38.077 C 25.166 36.051 27.557 30.326 29.251 29.125 C 31.363 27.628 38.579 28.036 41.25 28.381 C 44.719 32.436 47.256 38.708 50.096 43.269 C 51.096 44.877 52.283 48.5 54.433 48.163 C 58.345 47.551 55.157 43.918 54.173 42.111 C 51.424 37.065 47.734 32.26 45.618 26.934 C 45.128 25.7 46.205 23.583 46.836 22.578 C 48.973 19.519 50.11 17.227 53.928 16.296 Z"/>
  <path d="M 62.524 21.031 C 67.081 20.536 69.213 22.284 70.35 26.58 C 69.614 29.957 68.734 30.674 66.322 33.066 C 66.042 41.65 66.304 51.721 66.327 60.426 C 72.075 57.503 83.639 50.706 89.278 46.868 C 90.687 45.91 91.994 37.619 97.427 39.435 C 105.67 42.189 103.39 54.088 92.975 50.418 L 92.625 50.292 C 84.761 54.385 76.059 60.154 68.317 63.909 C 74.443 68.182 81.664 71.417 87.926 75.358 C 93.708 78.998 94.192 75.767 99.028 77.409 C 106.176 79.835 100.839 91.822 93.89 88.38 C 91.235 87.065 90.864 84.302 90.07 81.775 C 88.144 80.317 82.15 76.96 79.828 75.672 C 75.829 73.452 70.489 70.068 66.458 68.164 C 66.108 72.178 66.317 77.936 66.273 82.12 C 66.238 85.349 66.102 92.493 66.591 95.466 C 70.62 99.879 72.216 105.335 64.975 107.28 C 56.815 107.636 56.058 100.626 61.516 95.438 C 61.929 87.533 61.724 76.124 61.509 68.175 C 57.099 70.353 41.137 79.054 37.918 81.926 C 37.303 84.415 36.343 88.017 33.573 88.705 C 25.611 90.682 21.341 79.021 31.245 76.648 C 32.643 77.094 33.99 77.359 35.421 77.671 C 38.003 76.812 43.179 73.672 45.811 72.144 C 50.275 69.553 55.21 66.849 59.535 64.096 C 53.639 60.774 47.797 57.383 41.992 53.904 C 39.83 52.609 37.766 51.41 35.393 50.534 C 33.123 50.911 31.067 52.143 28.82 50.942 C 22.225 47.419 28.037 36.524 34.661 40 C 36.916 41.184 37.606 44.026 38.2 46.334 C 40.474 48.381 44.301 50.296 47.033 51.897 C 51.905 54.753 56.978 57.429 61.781 60.4 L 61.774 33.074 C 57.385 28.825 55.767 23.84 62.524 21.031 Z"/>
</svg>